<svg width="24" height="24" viewBox="0 0 24 24" fill="none" xmlns="http://www.w3.org/2000/svg">
<path fill-rule="evenodd" clip-rule="evenodd" d="M18.7054 16.263L16.0274 15.109C14.9104 15.917 13.5364 16.377 12.0004 16.377C10.4644 16.377 9.09044 15.917 7.97344 15.109L5.29544 16.263C4.39819 16.6495 3.63381 17.2903 3.09675 18.1064C2.55968 18.9225 2.27346 19.8781 2.27344 20.855V22C2.27344 22.552 2.72244 23 3.27344 23H20.7264C20.9917 23 21.246 22.8946 21.4335 22.7071C21.6211 22.5196 21.7264 22.2652 21.7264 22V20.855C21.7266 19.8781 21.4406 18.9226 20.9037 18.1065C20.3668 17.2904 19.6026 16.6495 18.7054 16.263ZM9.79844 4.224C9.84946 4.14412 9.92214 4.0804 10.008 4.04025C10.0939 4.0001 10.1894 3.98518 10.2834 3.99723C10.3774 4.00928 10.466 4.04781 10.539 4.10832C10.612 4.16883 10.6662 4.24883 10.6954 4.339C10.6934 4.323 10.9374 4.712 12.1624 5.492C13.6354 6.427 15.8084 6.986 17.9774 6.987C17.8934 3.662 15.8974 1 12.0004 1C8.10344 1 6.10844 3.662 6.02444 6.987C8.01644 6.979 9.78044 4.252 9.79844 4.224Z" fill="#B0B8C1"/>
<path fill-rule="evenodd" clip-rule="evenodd" d="M14.0029 10.3085C13.8992 10.3085 13.7964 10.288 13.7006 10.2482C13.6048 10.2085 13.5177 10.1502 13.4444 10.0768C13.3711 10.0034 13.313 9.91628 13.2733 9.82041C13.2337 9.72453 13.2133 9.62179 13.2134 9.51805C13.2135 9.4143 13.234 9.31159 13.2737 9.21576C13.3135 9.11994 13.3717 9.03289 13.4451 8.95958C13.5185 8.88627 13.6057 8.82813 13.7015 8.78849C13.7974 8.74885 13.9002 8.72848 14.0039 8.72855C14.2134 8.72868 14.4143 8.81204 14.5624 8.96029C14.7104 9.10853 14.7935 9.30953 14.7934 9.51905C14.7933 9.72857 14.7099 9.92945 14.5617 10.0775C14.4134 10.2256 14.2124 10.3087 14.0029 10.3085ZM9.9989 10.3085C9.89515 10.3084 9.79245 10.2879 9.69665 10.248C9.60086 10.2082 9.51384 10.1499 9.44058 10.0765C9.36731 10.003 9.30923 9.91584 9.26965 9.81994C9.23007 9.72405 9.20977 9.62129 9.2099 9.51755C9.21003 9.4138 9.23059 9.3111 9.27042 9.2153C9.31024 9.11951 9.36854 9.03249 9.44199 8.95923C9.51544 8.88596 9.6026 8.82788 9.6985 8.7883C9.7944 8.74872 9.89715 8.72842 10.0009 8.72855C10.2104 8.72881 10.4113 8.8123 10.5592 8.96064C10.7072 9.10898 10.7902 9.31003 10.7899 9.51955C10.7896 9.72907 10.7061 9.9299 10.5578 10.0779C10.4095 10.2258 10.2084 10.3088 9.9989 10.3085ZM17.9909 7.98655H17.9859C15.5979 7.98655 13.2789 7.38555 11.6259 6.33455C10.9649 5.91455 10.5319 5.57655 10.2499 5.31055C9.5369 6.23355 7.9329 7.98655 6.0159 7.98655H6.0109C5.3049 8.05055 4.7889 8.75455 4.8589 9.55955C4.9309 10.3675 5.5629 10.9725 6.2719 10.9105C6.2819 10.9105 6.2909 10.9055 6.3009 10.9055C7.0259 13.5035 9.1069 15.3765 12.0009 15.3765C14.8949 15.3765 16.9759 13.5035 17.7009 10.9045C17.7109 10.9065 17.7199 10.9105 17.7309 10.9115C18.4399 10.9725 19.0709 10.3675 19.1429 9.55955C19.2129 8.75355 18.6969 8.05155 17.9909 7.98655Z" fill="#B0B8C1"/>
</svg>
